<?xml version="1.0" standalone="no"?>
<!DOCTYPE svg PUBLIC "-//W3C//DTD SVG 20010904//EN"
 "http://www.w3.org/TR/2001/REC-SVG-20010904/DTD/svg10.dtd">
<svg version="1.0" xmlns="http://www.w3.org/2000/svg"
 width="200.000000pt" height="200.000000pt" viewBox="0 0 200.000000 200.000000"
 preserveAspectRatio="xMidYMid meet">
<metadata>
Created by potrace 1.11, written by Peter Selinger 2001-2013
</metadata>
<g transform="translate(0.000000,200.000000) scale(0.100000,-0.100000)"
fill="#000000" stroke="none">
<path d="M1078 1565 c-1 -2 -23 -6 -47 -10 -126 -19 -247 -104 -316 -221 -18
-31 -18 -31 -64 -19 -53 14 -89 11 -148 -11 -50 -18 -115 -88 -129 -136 -7
-25 -22 -39 -61 -61 -105 -56 -178 -171 -186 -290 -12 -178 119 -347 288 -373
66 -9 1125 -9 1190 0 209 32 328 265 235 460 -16 35 -47 79 -67 96 -42 37
-121 76 -173 85 -43 8 -43 7 -47 58 -5 60 -29 137 -58 189 -64 114 -208 212
-331 224 -32 3 -64 7 -71 9 -6 2 -13 2 -15 0z"/>
</g>
</svg>
